<svg width="32" height="32" viewBox="0 0 32 32" fill="none" xmlns="http://www.w3.org/2000/svg">
  <defs>
    <linearGradient id="vaultGradient" x1="0%" y1="0%" x2="100%" y2="100%">
      <stop offset="0%" style="stop-color:#3B82F6;stop-opacity:1" />
      <stop offset="50%" style="stop-color:#1E40AF;stop-opacity:1" />
      <stop offset="100%" style="stop-color:#1E3A8A;stop-opacity:1" />
    </linearGradient>
    <linearGradient id="shieldGradient" x1="0%" y1="0%" x2="100%" y2="100%">
      <stop offset="0%" style="stop-color:#10B981;stop-opacity:1" />
      <stop offset="100%" style="stop-color:#059669;stop-opacity:1" />
    </linearGradient>
  </defs>
  
  <!-- Background circle -->
  <circle cx="16" cy="16" r="15" fill="url(#vaultGradient)" stroke="#1E3A8A" stroke-width="2"/>
  
  <!-- Shield shape -->
  <path d="M16 4L8 8V16C8 20.4183 11.5817 24 16 24C20.4183 24 24 20.4183 24 16V8L16 4Z" 
        fill="url(#shieldGradient)" 
        stroke="#FFFFFF" 
        stroke-width="1.5" 
        stroke-linejoin="round"/>
  
  <!-- Lock icon inside shield -->
  <rect x="12" y="14" width="8" height="6" rx="1" fill="#FFFFFF" stroke="#10B981" stroke-width="1"/>
  <path d="M14 14V12C14 10.8954 14.8954 10 16 10C17.1046 10 18 10.8954 18 12V14" 
        fill="none" 
        stroke="#FFFFFF" 
        stroke-width="1.5" 
        stroke-linecap="round"/>
  
  <!-- Encryption dots -->
  <circle cx="10" cy="10" r="1" fill="#FFFFFF" opacity="0.7"/>
  <circle cx="22" cy="10" r="1" fill="#FFFFFF" opacity="0.7"/>
  <circle cx="10" cy="22" r="1" fill="#FFFFFF" opacity="0.7"/>
  <circle cx="22" cy="22" r="1" fill="#FFFFFF" opacity="0.7"/>
</svg>
